<svg aria-hidden="true">
	<symbol id="telegram" version="1.1" viewBox="0 0 512 512" xml:space="preserve" xmlns="http://www.w3.org/2000/svg" xmlns:cc="http://creativecommons.org/ns#" xmlns:dc="http://purl.org/dc/elements/1.1/" xmlns:inkscape="http://www.inkscape.org/namespaces/inkscape" xmlns:rdf="http://www.w3.org/1999/02/22-rdf-syntax-ns#" xmlns:sodipodi="http://sodipodi.sourceforge.net/DTD/sodipodi-0.dtd" xmlns:svg="http://www.w3.org/2000/svg"><defs id="defs12"/><g id="g3885" transform="translate(297.22034,0)"><rect height="512" id="rect2987" rx="64" ry="64" style="fill:#64a9dc;fill-opacity:1;fill-rule:nonzero;stroke:none" width="512" x="-297.22034" y="5.6843419e-014"/><path d="M 127.88103,94.198045 -218.4667,227.78507 c -23.63879,9.48433 -23.4986,22.66901 -4.30871,28.54816 l 86.38017,26.96101 33.05108,101.33207 c 4.018041,11.09077 2.03732,15.48953 13.683731,15.48953 8.98786,0 12.97504,-4.09778 17.98087,-8.98786 3.1833,-3.11513 22.08378,-21.49087 43.18752,-42.00936 l 89.85158,66.38643 c 16.5339,9.12161 28.47227,4.39617 32.58935,-15.35577 L 152.92948,122.20987 C 158.96812,98.000015 143.69981,87.018565 127.88103,94.198045 z M -122.83885,277.09998 71.862531,154.2616 c 9.71969,-5.89458 18.63166,-2.72542 11.31455,3.76981 l -166.71528,150.41932 -6.49136,69.23533 -32.809291,-100.58608 z" id="path9" style="fill:#ffffff"/></g>
	</symbol>
	<symbol id="viber" version="1.1" viewBox="0 0 512 512" xml:space="preserve" xmlns="http://www.w3.org/2000/svg" xmlns:cc="http://creativecommons.org/ns#" xmlns:dc="http://purl.org/dc/elements/1.1/" xmlns:inkscape="http://www.inkscape.org/namespaces/inkscape" xmlns:rdf="http://www.w3.org/1999/02/22-rdf-syntax-ns#" xmlns:sodipodi="http://sodipodi.sourceforge.net/DTD/sodipodi-0.dtd" xmlns:svg="http://www.w3.org/2000/svg"><defs id="defs12"/><g id="g4780"><rect height="512" id="rect2987" rx="64" ry="64" style="fill:#7b519d;fill-opacity:1;fill-rule:nonzero;stroke:none" width="512" x="0" y="0"/><g id="g15" transform="matrix(1.452588,0,0,1.452588,-115.17955,-97.147891)"><path d="m 369.75,304.701 c -8.397,-6.76 -17.371,-12.828 -26.204,-19.027 -17.617,-12.373 -33.73,-13.334 -46.876,6.572 -7.382,11.176 -17.716,11.665 -28.521,6.762 -29.789,-13.506 -52.791,-34.318 -66.265,-64.595 -5.96,-13.395 -5.882,-25.405 8.064,-34.879 7.383,-5.01 14.822,-10.939 14.227,-21.887 -0.777,-14.275 -35.437,-61.981 -49.124,-67.016 -5.664,-2.084 -11.304,-1.949 -17.066,-0.012 -32.095,10.793 -45.388,37.188 -32.657,68.441 37.98,93.242 104.82,158.154 196.828,197.773 5.245,2.256 11.073,3.158 14.024,3.967 20.947,0.211 45.486,-19.971 52.573,-40 6.823,-19.269 -7.597,-26.918 -19.003,-36.099 z" id="path17-6" style="fill:#ffffff;fill-rule:evenodd"/><path d="m 266.586,120.19 c 67.264,10.344 98.285,42.328 106.851,110.076 0.794,6.258 -1.537,15.674 7.391,15.848 9.331,0.178 7.083,-9.099 7.161,-15.363 0.789,-63.806 -54.846,-122.957 -119.458,-125.138 -4.875,0.701 -14.962,-3.362 -15.591,7.564 -0.419,7.367 8.073,6.156 13.646,7.013 z" id="path19-1" style="fill:#ffffff;fill-rule:evenodd"/><path d="m 279.743,138.766 c -6.47,-0.779 -15.011,-3.828 -16.523,5.15 -1.578,9.422 7.941,8.465 14.058,9.834 41.544,9.285 56.009,24.406 62.849,65.615 0.999,6.008 -0.986,15.359 9.224,13.809 7.567,-1.152 4.834,-9.168 5.467,-13.85 0.335,-39.563 -33.567,-75.574 -75.075,-80.558 z" id="path21-2" style="fill:#ffffff;fill-rule:evenodd"/><path d="m 283.558,171.118 c -4.319,0.107 -8.558,0.574 -10.145,5.189 -2.384,6.898 2.631,8.543 7.736,9.363 17.042,2.736 26.011,12.785 27.713,29.779 0.46,4.613 3.387,8.35 7.843,7.824 6.174,-0.736 6.732,-6.232 6.543,-11.451 0.305,-19.093 -21.275,-41.161 -39.69,-40.704 z" id="path23" style="fill:#ffffff;fill-rule:evenodd"/></g></g>
	</symbol>
	<symbol id="whatsapp" version="1.1" viewBox="0 0 512 512" xml:space="preserve" xmlns="http://www.w3.org/2000/svg" xmlns:cc="http://creativecommons.org/ns#" xmlns:dc="http://purl.org/dc/elements/1.1/" xmlns:inkscape="http://www.inkscape.org/namespaces/inkscape" xmlns:rdf="http://www.w3.org/1999/02/22-rdf-syntax-ns#" xmlns:sodipodi="http://sodipodi.sourceforge.net/DTD/sodipodi-0.dtd" xmlns:svg="http://www.w3.org/2000/svg"><defs id="defs12"/><g id="g5124"><rect height="512" id="rect2987" rx="64" ry="64" style="fill:#65bc54;fill-opacity:1;fill-rule:nonzero;stroke:none" width="512" x="0" y="0"/><path d="m 456,250.85266 c 0,107.60904 -87.9126,194.8442 -196.36397,194.8442 -34.43066,0 -66.77677,-8.80168 -94.9199,-24.24162 L 56.000005,456 91.437745,351.45584 C 73.559715,322.08872 63.265025,287.65523 63.265025,250.85124 63.265025,143.23516 151.18049,56 259.63463,56 368.0874,56.001 456,143.23657 456,250.85266 z M 259.63603,87.03196 c -91.04092,0 -165.093965,73.49248 -165.093965,163.8207 0,35.84056 11.683465,69.04162 31.446055,96.04529 l -20.62177,60.83151 63.44285,-20.16403 c 26.07126,17.11323 57.29196,27.09805 90.82543,27.09805 91.02965,0 165.09396,-73.48543 165.09396,-163.81224 0,-90.3268 -74.06292,-163.81928 -165.09256,-163.81928 z m 99.15526,208.68972 c -1.20989,-1.98879 -4.4185,-3.18602 -9.22424,-5.5706 -4.81705,-2.3874 -28.48964,-13.94551 -32.894,-15.53429 -4.41845,-1.59301 -7.63122,-2.39304 -10.83838,2.38458 -3.20432,4.79028 -12.42856,15.53429 -15.24273,18.72031 -2.80853,3.19166 -5.60863,3.59026 -10.42569,1.20003 -4.80578,-2.38739 -20.32177,-7.4284 -38.70826,-23.70215 -14.30749,-12.65815 -23.96978,-28.2854 -26.77831,-33.07147 -2.80854,-4.77903 -0.2972,-7.3622 2.10993,-9.73975 2.16626,-2.14796 4.81423,-5.58186 7.22416,-8.36364 2.40712,-2.79447 3.20715,-4.78184 4.80861,-7.96926 1.61272,-3.18884 0.80002,-5.97485 -0.3986,-8.3707 -1.20286,-2.38317 -10.83274,-25.88955 -14.84415,-35.449 -4.01138,-9.55947 -8.0115,-7.96646 -10.82568,-7.96646 -2.80996,0 -6.01569,-0.40002 -9.22987,-0.40002 -3.20997,0 -8.42703,1.19864 -12.83562,5.97344 -4.41001,4.78325 -16.84138,16.33291 -16.84138,39.83365 0,23.50497 17.24279,46.21133 19.65273,49.39594 2.40431,3.17756 33.28838,52.9721 82.21811,72.10228 48.94802,19.11328 48.94802,12.74407 57.77365,11.937 8.81437,-0.78735 28.46992,-11.54403 32.48832,-22.70072 4.0086,-11.14964 4.0086,-20.71896 2.8114,-22.70917 z" id="WhatsApp_2_" style="fill:#ffffff;fill-rule:evenodd"/></g>
	</symbol>
	<symbol id="check" viewBox="0 0 520 520" xml:space="preserve" xmlns="http://www.w3.org/2000/svg" xmlns:cc="http://creativecommons.org/ns#" xmlns:dc="http://purl.org/dc/elements/1.1/" xmlns:inkscape="http://www.inkscape.org/namespaces/inkscape" xmlns:rdf="http://www.w3.org/1999/02/22-rdf-syntax-ns#" xmlns:sodipodi="http://sodipodi.sourceforge.net/DTD/sodipodi-0.dtd" xmlns:svg="http://www.w3.org/2000/svg">
	<path
		d="m161.688 453.165a10 10 0 0 1 -9.039-5.721l-119.687-252.835a10 10 0 0 1 15.285-12.088l114 91.2 310.235-205.221a10 10 0 0 1 13.086 14.876l-316.311 366.324a10 10 0 0 1 -7.569 3.465z">
	</path>
	</symbol>
	<symbol id="wechat" version="1.1" viewBox="0 0 512 512" xml:space="preserve" xmlns="http://www.w3.org/2000/svg">
	  <path fill="#2dc100" d="M102 86.7A15.3 15.3 0 0 1 86.7 102H15.3A15.3 15.3 0 0 1 0 86.7V15.3A15.3 15.3 0 0 1 15.3 0h71.4A15.3 15.3 0 0 1 102 15.3Z"></path>
	  <g fill="#fff">
		<path d="M68.276 38.039c-8.232.43-15.391 2.926-21.2 8.564-5.872 5.7-8.553 12.677-7.82 21.33-3.218-.4-6.149-.837-9.1-1.085a5.65 5.65 0 0 0-3.088.523c-2.862 1.615-5.606 3.438-8.858 5.471.6-2.7.983-5.062 1.667-7.336a2.789 2.789 0 0 0-1.269-3.689C8.723 54.84 4.557 44.398 7.676 33.648c2.883-9.945 9.965-15.975 19.59-19.12 13.136-4.291 27.9.086 35.886 10.515a24.58 24.58 0 0 1 5.121 13Zm-37.889-3.35a3.794 3.794 0 0 0-3.652-3.8 3.687 3.687 0 0 0-3.837 3.564 3.643 3.643 0 0 0 3.608 3.78 3.748 3.748 0 0 0 3.878-3.543Zm19.768-3.8a3.8 3.8 0 0 0-3.711 3.741 3.706 3.706 0 0 0 3.809 3.622 3.682 3.682 0 1 0-.1-7.363Z"></path>
		<path d="M86.769 89.363c-2.607-1.161-5-2.9-7.544-3.168s-5.2 1.2-7.855 1.469a26.25 26.25 0 0 1-21.293-6.947c-11.355-10.5-9.732-26.606 3.4-35.213 11.676-7.649 28.8-5.1 37.031 5.514 7.184 9.262 6.34 21.556-2.43 29.337-2.538 2.252-3.451 4.1-1.823 7.073a8.421 8.421 0 0 1 .514 1.935Zm-29.673-28.73a3.067 3.067 0 1 0 .022-6.134 3.067 3.067 0 1 0-.022 6.134Zm19.129-6.127a3.068 3.068 0 0 0-3.044 2.934 3.026 3.026 0 1 0 3.044-2.934Z"></path>
	  </g>
	</symbol>
	
</svg>